<svg xmlns="http://www.w3.org/2000/svg" width="512" height="512"><path d="M1 217v78c0 28.59 1.85 62.64 9.99 89.01C19.13 410.37 38.94 423.52 66 428c27.07 4.48 62.11 6.05 92 7 29.89.95 67.27 1.96 98 2 30.73.04 67.17-1.13 97-2 29.83-.87 65.03-2.52 92.07-6.93 27.05-4.41 47.36-16.77 55.7-43.3C509.11 358.24 511 323.8 511 295v-78c0-28.8-1.89-63.24-10.23-89.77-8.34-26.53-28.65-38.9-55.7-43.3-27.04-4.4-62.23-6.1-92.07-6.93-29.84-.83-66.27-2.07-97-2-30.73.07-68.12 1.02-98 2-29.88.98-64.94 2.51-92 7-27.06 4.49-46.87 17.62-55.01 43.99S1 188.41 1 217" style="display:inline;fill:#000;fill-opacity:1"/><path d="M204 180v152l132-77Z" style="fill:#fff;fill-opacity:.879327;stroke:none;stroke-opacity:1"/></svg>